<svg xmlns="http://www.w3.org/2000/svg" width="95" height="96" viewBox="0 0 95 96">
<g>
<path d="M 17.99,95.13 L 16.01,94.47 L 12.46,92.59 L 10.77,91.57 L 7.85,89.04 L 6.47,87.71 L 4.21,84.67 L 3.18,83.10 L 1.65,79.67 L 0.98,77.92 L 0.22,74.24 L -0.06,72.39 L 0.00,68.59 L 0.14,66.69 L 1.08,62.90 L 3.52,57.38 L 4.20,56.22 L 6.26,53.85 L 7.38,52.68 L 10.01,50.52 L 11.36,49.50 L 14.14,47.88 L 14.82,47.52 L 16.14,46.96 L 18.00,46.39 L 18.77,46.23 L 20.03,45.94 L 20.62,45.80 L 21.52,45.52 L 21.92,45.38 L 22.48,45.07 L 22.72,44.91 L 22.95,44.52 L 23.03,44.31 L 22.95,43.81 L 22.87,43.53 L 22.50,42.86 L 22.27,42.50 L 21.62,41.61 L 20.35,40.00 L 19.03,38.36 L 16.95,35.21 L 15.99,33.64 L 14.60,30.56 L 13.98,29.02 L 13.24,25.89 L 12.80,21.02 L 12.80,19.90 L 12.97,17.83 L 13.08,16.82 L 13.48,14.97 L 13.72,14.07 L 14.38,12.42 L 14.75,11.62 L 15.69,10.13 L 16.19,9.41 L 17.42,8.06 L 18.08,7.41 L 19.62,6.18 L 20.43,5.58 L 22.31,4.44 L 25.51,2.81 L 26.58,2.31 L 28.51,1.62 L 29.48,1.31 L 31.66,0.92 L 32.25,0.84 L 33.57,0.72 L 34.27,0.67 L 35.86,0.60 L 36.70,0.57 L 38.63,0.53 L 42.00,0.52 L 43.63,0.52 L 46.50,0.59 L 47.87,0.64 L 50.27,0.84 L 51.42,0.96 L 53.45,1.31 L 54.43,1.50 L 56.16,2.04 L 57.00,2.33 L 58.53,3.08 L 59.28,3.48 L 60.68,4.47 L 61.38,4.99 L 62.75,6.25 L 64.84,8.48 L 65.51,9.23 L 66.46,10.50 L 66.88,11.13 L 67.42,12.34 L 67.65,12.97 L 67.88,14.41 L 68.00,17.13 L 68.00,18.29 L 67.77,20.47 L 67.61,21.53 L 67.07,23.52 L 66.76,24.49 L 65.90,26.29 L 65.44,27.16 L 64.26,28.77 L 63.64,29.56 L 62.15,30.99 L 61.36,31.68 L 59.55,32.93 L 58.61,33.54 L 56.47,34.61 L 52.91,36.03 L 47.98,37.70 L 50.20,40.60 L 50.51,41.00 L 51.50,42.27 L 52.04,42.97 L 53.37,44.67 L 57.87,50.39 L 63.31,57.28 L 65.03,53.89 L 65.74,52.51 L 66.70,50.04 L 67.11,48.84 L 67.49,46.65 L 67.61,45.57 L 67.43,43.52 L 66.54,40.45 L 66.11,39.42 L 65.54,37.69 L 65.44,37.31 L 65.33,36.76 L 65.35,36.32 L 65.37,36.29 L 65.72,36.25 L 65.93,36.23 L 66.62,36.19 L 67.01,36.18 L 68.01,36.16 L 68.54,36.15 L 69.81,36.14 L 71.14,36.13 L 74.43,36.14 L 80.01,36.22 L 94.29,36.50 L 79.68,47.90 L 77.52,49.58 L 73.80,52.60 L 72.93,53.32 L 71.37,54.64 L 70.62,55.28 L 69.32,56.43 L 68.71,56.98 L 67.70,57.93 L 67.23,58.38 L 66.53,59.12 L 66.23,59.46 L 65.87,59.95 L 65.74,60.40 L 65.78,60.47 L 66.12,60.94 L 66.32,61.21 L 66.95,62.05 L 67.30,62.51 L 68.18,63.67 L 68.65,64.29 L 69.76,65.73 L 70.34,66.48 L 71.64,68.16 L 72.30,69.03 L 73.75,70.89 L 78.50,77.00 L 80.16,79.13 L 83.26,83.12 L 84.00,84.08 L 85.38,85.86 L 86.05,86.73 L 87.26,88.31 L 87.85,89.07 L 88.86,90.40 L 89.33,91.02 L 90.11,92.04 L 90.46,92.51 L 90.96,93.18 L 91.36,93.75 L 91.43,93.87 L 91.37,94.09 L 91.31,94.19 L 90.93,94.36 L 90.70,94.44 L 89.95,94.58 L 89.53,94.64 L 88.38,94.74 L 87.75,94.79 L 86.14,94.86 L 85.27,94.90 L 83.15,94.94 L 82.03,94.96 L 79.37,94.99 L 74.70,95.00 L 57.28,95.00 L 56.69,90.07 L 56.61,89.39 L 56.28,87.79 L 56.09,86.96 L 55.58,85.22 L 55.32,84.35 L 54.70,82.67 L 53.73,80.46 L 51.35,75.78 L 49.58,80.43 L 49.10,81.68 L 48.01,83.92 L 47.43,85.01 L 46.13,86.93 L 45.45,87.86 L 43.93,89.48 L 43.14,90.25 L 41.39,91.57 L 40.49,92.20 L 38.50,93.22 L 37.47,93.70 L 35.23,94.44 L 34.07,94.78 L 31.57,95.24 L 27.50,95.63 L 25.57,95.72 L 21.82,95.61 L 20.96,95.57 L 19.52,95.42 L 18.86,95.34 M 45.03,76.37 L 45.61,76.14 L 46.63,75.62 L 47.10,75.36 L 47.85,74.83 L 48.19,74.56 L 48.61,74.07 L 48.80,73.41 L 48.78,73.31 L 48.50,72.86 L 48.32,72.59 L 47.76,71.83 L 47.45,71.41 L 46.65,70.39 L 46.23,69.86 L 45.24,68.63 L 44.20,67.35 L 41.71,64.37 L 40.42,62.84 L 37.66,59.62 L 36.28,58.02 L 33.59,54.94 L 32.28,53.46 L 29.97,50.91 L 29.43,50.32 L 28.48,49.30 L 28.03,48.83 L 27.29,48.07 L 26.95,47.73 L 26.46,47.28 L 26.04,47.00 L 25.95,47.00 L 25.61,47.31 L 25.42,47.50 L 24.93,48.14 L 23.18,50.89 L 22.52,52.07 L 21.64,54.96 L 21.28,56.45 L 21.03,59.67 L 20.97,61.28 L 21.35,64.42 L 22.62,68.62 L 23.08,69.58 L 24.28,71.30 L 24.92,72.13 L 26.45,73.56 L 27.25,74.24 L 29.04,75.36 L 29.97,75.89 L 31.96,76.68 L 32.98,77.03 L 35.11,77.46 L 36.19,77.64 L 38.40,77.70 L 39.51,77.68 L 41.74,77.35 L 42.85,77.13 M 48.95,28.89 L 49.43,27.79 L 50.16,25.49 L 50.49,24.34 L 50.93,22.00 L 51.12,20.83 L 51.29,18.52 L 51.34,17.37 L 51.23,15.16 L 51.14,14.07 L 50.77,12.04 L 50.56,11.05 L 49.93,9.28 L 49.58,8.43 L 48.69,6.99 L 47.09,5.28 L 46.42,4.77 L 44.71,4.23 L 43.82,4.03 L 41.85,4.10 L 40.86,4.20 L 38.91,4.84 L 36.31,6.41 L 35.73,6.91 L 34.90,7.81 L 34.53,8.25 L 34.05,9.19 L 33.85,9.69 L 33.66,10.88 L 33.59,13.16 L 33.62,14.36 L 34.13,17.13 L 34.28,17.80 L 34.65,19.04 L 35.28,20.58 L 35.54,21.09 L 36.29,22.31 L 36.70,22.96 L 37.66,24.38 L 38.67,25.82 L 40.96,28.80 L 41.52,29.51 L 42.61,30.81 L 43.13,31.44 L 44.07,32.47 L 44.51,32.94 L 45.21,33.59 L 45.90,34.00 L 46.02,34.00 L 46.41,33.60 L 46.62,33.34 L 47.15,32.50 L 47.43,32.03 L 48.03,30.87 L 48.34,30.26 Z" fill="rgba(0,0,0,1)"/>
</g>
</svg>